Normalized EMG Linear Envelopes
nRows=135
nColumns=4

endheader
time	 med_gas_r	  soleus_r	 tib_ant_r	
2.86272	  0.025932	  0.026270	  0.014257	
2.93429	  0.023894	  0.025668	  0.013576	
3.00586	  0.022652	  0.025376	  0.013150	
3.07742	  0.022141	  0.025295	  0.013110	
3.14899	  0.021798	  0.025110	  0.013297	
3.22056	  0.021358	  0.024774	  0.013435	
3.29213	  0.020947	  0.024469	  0.013376	
3.3637	  0.020735	  0.024282	  0.013122	
3.43526	  0.020819	  0.024273	  0.012864	
3.50683	  0.021349	  0.024516	  0.012897	
3.5784	  0.022474	  0.024914	  0.013238	
3.64997	  0.024123	  0.025237	  0.013535	
3.72154	  0.025846	  0.025287	  0.013542	
3.7931	  0.026833	  0.025049	  0.013315	
3.86467	  0.026444	  0.024765	  0.012915	
3.93624	  0.025030	  0.024608	  0.012422	
4.00781	  0.023776	  0.024456	  0.012096	
4.07938	  0.023329	  0.024222	  0.012090	
4.15094	  0.023102	  0.023925	  0.012220	
4.22251	  0.021970	  0.023410	  0.012251	
4.29408	  0.019773	  0.022645	  0.012211	
4.36565	  0.019474	  0.022520	  0.012346	
4.43722	  0.028639	  0.025367	  0.012864	
4.50878	  0.057265	  0.034374	  0.013868	
4.58035	  0.109579	  0.051106	  0.015388	
4.65192	  0.177867	  0.072883	  0.017301	
4.72349	  0.249464	  0.092462	  0.019188	
4.79506	  0.310889	  0.101603	  0.020255	
4.86662	  0.343462	  0.098418	  0.019861	
4.93819	  0.338850	  0.090184	  0.018516	
5.00976	  0.314872	  0.085649	  0.017593	
5.08133	  0.296258	  0.086933	  0.017719	
5.1529	  0.291874	  0.090523	  0.018232	
5.22446	  0.290602	  0.091827	  0.018258	
5.29603	  0.273893	  0.088059	  0.017741	
5.3676	  0.243477	  0.080932	  0.017354	
5.43917	  0.219901	  0.074875	  0.017565	
5.51074	  0.212905	  0.072620	  0.018218	
5.5823	  0.219276	  0.075222	  0.018994	
5.65387	  0.232370	  0.081232	  0.019521	
5.72544	  0.244433	  0.086785	  0.019407	
5.79701	  0.253167	  0.089869	  0.018621	
5.86858	  0.256972	  0.090416	  0.017383	
5.94014	  0.254347	  0.089324	  0.016033	
6.01171	  0.249671	  0.087994	  0.015049	
6.08328	  0.243246	  0.084939	  0.014597	
6.15485	  0.233162	  0.078069	  0.014428	
6.22642	  0.223037	  0.068976	  0.014438	
6.29798	  0.214386	  0.060387	  0.014867	
6.36955	  0.207365	  0.054125	  0.015739	
6.44112	  0.200856	  0.051836	  0.016465	
6.51269	  0.188982	  0.054137	  0.016543	
6.58426	  0.172139	  0.058471	  0.016233	
6.65582	  0.159889	  0.060035	  0.015996	
6.72739	  0.159475	  0.057477	  0.015930	
6.79896	  0.168426	  0.053904	  0.015980	
6.87053	  0.175971	  0.051411	  0.016078	
6.9421	  0.170582	  0.049119	  0.016132	
7.01366	  0.146489	  0.045663	  0.016146	
7.08523	  0.113167	  0.042193	  0.016361	
7.1568	  0.095686	  0.041816	  0.016893	
7.22837	  0.112865	  0.045265	  0.017366	
7.29994	  0.159750	  0.050390	  0.017559	
7.3715	  0.209716	  0.055141	  0.017741	
7.44307	  0.235732	  0.058356	  0.017939	
7.51464	  0.233181	  0.059198	  0.017823	
7.58621	  0.213827	  0.057593	  0.017282	
7.65778	  0.189943	  0.055083	  0.016536	
7.72934	  0.169776	  0.053613	  0.015892	
7.80091	  0.155912	  0.053729	  0.015521	
7.87248	  0.148720	  0.055203	  0.015291	
7.94405	  0.147055	  0.057591	  0.014944	
8.01562	  0.144723	  0.059727	  0.014502	
8.08718	  0.137588	  0.060184	  0.014263	
8.15875	  0.130532	  0.058077	  0.014411	
8.23032	  0.132108	  0.054226	  0.014837	
8.30189	  0.145185	  0.051518	  0.015375	
8.37346	  0.161840	  0.051980	  0.015965	
8.44502	  0.170859	  0.054589	  0.016505	
8.51659	  0.171448	  0.057396	  0.016898	
8.58816	  0.173951	  0.059974	  0.017227	
8.65973	  0.186907	  0.062646	  0.017428	
8.7313	  0.205433	  0.064480	  0.017110	
8.80286	  0.215990	  0.063834	  0.016165	
8.87443	  0.212397	  0.060521	  0.015105	
8.946	  0.200254	  0.056208	  0.014550	
9.01757	  0.188495	  0.053082	  0.014646	
9.08914	  0.182507	  0.052197	  0.015036	
9.1607	  0.181704	  0.052897	  0.015323	
9.23227	  0.182337	  0.054036	  0.015515	
9.30384	  0.183222	  0.055024	  0.015789	
9.37541	  0.186094	  0.055638	  0.016059	
9.44698	  0.192251	  0.055863	  0.016092	
9.51854	  0.199698	  0.055995	  0.015785	
9.59011	  0.203011	  0.056248	  0.015224	
9.66168	  0.201664	  0.056574	  0.014676	
9.73325	  0.202742	  0.056836	  0.014493	
9.80482	  0.206955	  0.056392	  0.014807	
9.87638	  0.206862	  0.054727	  0.015157	
9.94795	  0.201237	  0.052852	  0.014614	
10.0195	  0.193311	  0.051998	  0.012601	
10.0911	  0.179710	  0.051403	  0.009602	
10.1627	  0.153659	  0.049201	  0.007870	
10.2342	  0.117841	  0.045347	  0.012624	
10.3058	  0.087363	  0.042015	  0.032154	
10.3774	  0.073565	  0.040432	  0.072801	
10.4489	  0.072160	  0.039818	  0.128337	
10.5205	  0.073239	  0.039901	  0.179554	
10.5921	  0.072873	  0.041247	  0.212028	
10.6636	  0.073893	  0.043397	  0.223888	
10.7352	  0.081437	  0.045021	  0.213821	
10.8068	  0.096549	  0.045174	  0.178622	
10.8783	  0.112331	  0.043373	  0.124642	
10.9499	  0.118029	  0.039678	  0.070223	
11.0215	  0.111212	  0.035414	  0.032455	
11.093	  0.100721	  0.032480	  0.014813	
11.1646	  0.093246	  0.031490	  0.010166	
11.2362	  0.087063	  0.031525	  0.010738	
11.3077	  0.078946	  0.031389	  0.012296	
11.3793	  0.068662	  0.030541	  0.013379	
11.4509	  0.058041	  0.029163	  0.013828	
11.5224	  0.049026	  0.027782	  0.013912	
11.594	  0.042491	  0.026718	  0.013927	
11.6656	  0.037980	  0.025819	  0.013942	
11.7372	  0.034481	  0.025002	  0.013795	
11.8087	  0.031478	  0.024645	  0.013411	
11.8803	  0.029074	  0.024953	  0.013100	
11.9519	  0.027654	  0.025407	  0.013492	
12.0234	  0.027717	  0.025420	  0.015126	
12.095	  0.029218	  0.025133	  0.017718	
12.1666	  0.030786	  0.025116	  0.019677	
12.2381	  0.030931	  0.025593	  0.019423	
12.3097	  0.030287	  0.026344	  0.017374	
12.3813	  0.030883	  0.027220	  0.015247	
12.4528	  0.033237	  0.028233	  0.013800	
